<svg xmlns="http://www.w3.org/2000/svg" id="CK-Logo" width="26.759" height="26.759" viewBox="0 0 26.759 26.759">
    <path id="Pfad_3909" d="M123.938 75.288l-1.283 12.656-.3 2.773c-.057.264-.226.509-.717.641a2.676 2.676 0 0 1-.415.094.4.4 0 0 1-.49-.434l1.113-14.524a.691.691 0 0 0-.66-.754h-.075a.691.691 0 0 0-.754.66l-1.132 14.863a.647.647 0 0 1-.585.6l-.585.057a.5.5 0 0 1-.528-.49l.3-15.467a.713.713 0 0 0-.679-.736h-.075a.713.713 0 0 0-.736.679l-.3 15.58a.573.573 0 0 1-.547.547h-.622a.577.577 0 0 1-.566-.547L113.941 77a.7.7 0 0 0-.736-.679h-.075a.7.7 0 0 0-.679.736l.358 14.373a.486.486 0 0 1-.528.49l-.566-.057a.647.647 0 0 1-.585-.6l-1.093-14.693a.726.726 0 0 0-.754-.66h-.075a.726.726 0 0 0-.66.754l1.075 14.354a.406.406 0 0 1-.49.434l-.453-.113c-.509-.151-.66-.4-.717-.679-.038-.4-.264-2.641-.283-2.716-.283-2.754-1.264-12.411-1.264-12.411-.019-.924-.038-1.32.905-1.792 2.546-1.264 5.791-.057 5.791-.057l1.679-.641a9.966 9.966 0 0 1 7.865.641c.453.264 1.358.7 1.283 1.6M122.2 93.471s0 .641-.019.962c-.019.4-.019.868-.792 1.056a24.849 24.849 0 0 1-12.449 0c-.792-.207-.773-.622-.792-1-.019-.321-.019-1.019-.019-1.037a.521.521 0 0 1 .679-.547 32.672 32.672 0 0 0 12.694 0 .546.546 0 0 1 .7.566m3-19.824a9.054 9.054 0 0 0-3.225-1.962 12 12 0 0 0-8.846.415l-.34-.094a8.8 8.8 0 0 0-6.338.472c-.943.509-1.377.924-1.528 1.584a3.977 3.977 0 0 0-.075 1.584.17.17 0 0 0 .019.094c.226 2.678 1.7 15.882 1.716 15.9.245 2.622-.132 3.678.4 4.376a.819.819 0 0 0 .113.132 2.828 2.828 0 0 0 1.056.6c.094.038.207.075.3.113a12.453 12.453 0 0 0 1.339.4 27.622 27.622 0 0 0 10.751 0 11.292 11.292 0 0 0 1.339-.4c.094-.038.207-.075.3-.113a3.239 3.239 0 0 0 1.056-.6.82.82 0 0 0 .113-.132c.528-.7.17-1.754.4-4.376 0-.019 1.49-13.222 1.716-15.9a.141.141 0 0 1 .019-.094c.132-1.415-.094-1.716-.283-2" fill="#3b8047" transform="translate(-104.815 -71.031)"/>
</svg>
